PathFileType	4	(X/Y/Z)	T1_P1_NoVision_Movement_0_0-662.trc
DataRate	CameraRate	NumFrames	NumMarkers	Units	OrigDataRate	OrigDataStartFrame	OrigNumFrames
60	60	7	27	m	60	82	662
Frame#	Time	RHip			RKnee			RAnkle			RBigToe			RSmallToe			RHeel			LHip			LKnee			LAnkle			LBigToe			LSmallToe			LHeel			Neck			Head			Nose			RShoulder			RElbow			RWrist			RThumb			RIndex			RPinky			LShoulder			LElbow			LWrist			LThumb			LIndex			LPinky		
		X1	Y1	Z1	X2	Y2	Z2	X3	Y3	Z3	X4	Y4	Z4	X5	Y5	Z5	X6	Y6	Z6	X7	Y7	Z7	X8	Y8	Z8	X9	Y9	Z9	X10	Y10	Z10	X11	Y11	Z11	X12	Y12	Z12	X13	Y13	Z13	X14	Y14	Z14	X15	Y15	Z15	X16	Y16	Z16	X17	Y17	Z17	X18	Y18	Z18	X19	Y19	Z19	X20	Y20	Z20	X21	Y21	Z21	X22	Y22	Z22	X23	Y23	Z23	X24	Y24	Z24	X25	Y25	Z25	X26	Y26	Z26	X27	Y27	Z27
83	1.3833333333333333	-83.85637258539923	3888.4154167983893	-587.2485055825764	256.0346683410947	3991.476595873985	-528.3970860026958	624.4230929473049	4147.850871050027	-523.7576259164573	695.6361020751672	4091.5672398329298	-477.0226857979964	699.5514557385796	4084.851124099098	-547.2892425601526	651.4110682499862	4162.171940495596	-525.0475818228163	-114.37200563154465	3926.0705461913753	-360.36885616266136	227.1514404611611	4009.3979978122197	-354.0119932931273	571.0261692475834	4189.75359003165	-380.8635293509881	672.9033650036621	4183.5614083251885	-349.4187579334411	633.440013708192	4215.0039201741665	-333.8028400402677	610.4908447731061	4251.808917546491	-421.8358544328974	-691.4271802366259	3747.531512819059	-489.5095946615717	-914.2740654720186	3548.707263974143	-418.1899578387298	-743.6035952885749	3586.0224550331936	-419.0395025458743	-587.829744519737	3695.8187685651847	-631.1941342510723	-372.59372808743717	3579.4832598577023	-668.0089647321067	-542.3434945786519	3408.0551030326706	-534.9912756891575	-660.7065644580989	3441.8459430330518	-470.5592313510913	-666.3082516679355	3382.148518997958	-436.52280673753904	-625.9423120668953	3339.055678494111	-453.5136601449125	-640.7949704565555	3889.066224695554	-383.93007886961345	-401.7572560076704	4000.6343146212425	-323.92467250985175	-139.5658921922649	3988.802227893133	-241.63833581081477	-15.841190075812262	3991.2151960412607	-235.16782740771933	7.832446350242172	3984.7799471941025	-220.32522156493192	-7.273435185629508	4028.206354714809	-218.40683186432696
84	1.4	-83.65287397903181	3889.643642738005	-589.2547333355067	261.99475882259475	3995.5403865436315	-530.4349897581636	624.5357383201111	4147.944832146431	-523.7953862464869	695.5608673437903	4090.904399963369	-476.6413619490328	700.6472232673667	4066.7143021886154	-533.5731429630152	651.495985153069	4162.508597170339	-525.1925726193148	-114.37078568517943	3926.0429200240183	-360.38286621054897	227.17926245953893	4009.210703349335	-354.04767149955626	571.2273193860512	4190.26239750889	-381.0864389859825	672.744809794462	4183.2898739245375	-349.3244727360439	633.2421548029304	4215.042291678982	-333.8661064280858	605.1062224494503	4252.788975195647	-422.67484272451713	-686.930424472257	3721.555031995207	-483.26236837450534	-914.3316089054338	3548.8175642014166	-418.21336795727	-743.6820628256593	3585.9839396286593	-418.938417738083	-587.8878014417687	3695.885609718346	-631.5772393460186	-372.50272593250054	3579.5287904000456	-667.9903047986048	-542.3132878781219	3408.059794272078	-535.0505536539588	-658.9320542388416	3428.9509557904635	-459.7722427947209	-670.316902958508	3404.103375166407	-442.3822426678675	-631.224833436173	3334.127254486283	-443.5952246223625	-640.8403867318876	3889.1851150877274	-384.0020079436274	-401.75092610079884	4000.4879460186844	-323.8576290743755	-139.48607768504382	3988.9237999902257	-241.69265232059848	-15.904925903490103	3990.5912102480543	-234.94724276039253	3.370695929388121	3980.427753022237	-218.5230234701179	-11.886989711850596	3997.398092970634	-212.18078557397297
85	1.4166666666666667	-88.94024982665378	3885.5937046055337	-587.3605054763863	255.7959630670435	3990.8148858409295	-528.0197517460216	624.4595394933236	4147.829836297413	-523.5890213285294	690.256742819238	4091.4868317951064	-477.2091690037422	696.9483022382716	4068.729140621201	-540.939489031107	655.9322021379086	4193.232124635628	-531.7673236282702	-114.47025884708441	3926.0033778967213	-360.370327120467	227.24983949635518	4009.1304442279825	-353.8990236551687	577.2286675584207	4194.5209378433	-382.98803949166825	667.6832323818109	4184.38394864358	-350.0692639266925	637.4826837010365	4246.800892032188	-339.1668849896202	610.3012975522462	4257.344191945971	-424.8692887081144	-686.448462527849	3749.2578318954147	-489.71825382491625	-914.3209581494211	3548.9022681950505	-418.4721274331063	-747.6120290194468	3582.9557676083996	-417.90219786731956	-588.2420856780539	3696.180867249687	-625.5394686551172	-372.7000627377877	3579.290113762509	-667.782116314661	-542.4832399839854	3408.192053490783	-535.1195110670789	-659.5668890907303	3431.7419243766803	-461.308519421432	-671.1032922152651	3407.123258966933	-443.90691861688447	-640.4313771994715	3357.979663608849	-451.52094113691356	-640.7827362166215	3889.144597577098	-383.91059671247615	-401.8608814566621	4000.4256600215253	-323.8070904724782	-140.20556213674092	3988.62180760252	-241.659785311622	-16.768822813931695	3989.5813447969563	-234.08982242954124	-2.010674608161152	3977.07521094233	-216.9949037356317	-12.565817253944068	4024.014900508544	-216.48257202756608
86	1.4333333333333333	-83.62698769146047	3889.36598460908	-589.1051823200881	261.17362004221945	3994.491437060176	-524.0381916495406	624.5328005435227	4148.368127264874	-523.8182267204743	690.2390063177914	4092.557155220295	-477.75507570237517	700.7784270970228	4099.9038684366415	-541.6725741615473	655.9459327558476	4193.768690668016	-531.9432277357938	-114.41636912827607	3925.9178404409327	-360.31703164948135	227.38288343206904	4009.224165107433	-353.8768546578813	577.1973108098024	4194.271631832157	-382.87887885461777	675.0147194593525	4189.876567213785	-352.2706702695797	644.5422871271311	4252.151632467735	-341.27323566640797	599.9583249326804	4231.052028527268	-408.5886628004122	-686.4318370811293	3749.204930311798	-489.69495554728945	-914.3291068831765	3548.9747863420534	-418.46811253313695	-747.6720379983184	3583.0656256859406	-417.967924952668	-588.0151181195355	3696.840986269564	-631.9821400792131	-372.5813392335615	3579.434604982821	-667.9088329429001	-542.4120158784135	3408.0378788241364	-534.9741984806624	-661.2555230632039	3443.829012057084	-471.47383287092543	-670.9765447364493	3406.4320135724606	-443.3846247619897	-636.3066840542815	3334.3667635434167	-444.6181732307557	-640.6990142770744	3889.01565227145	-383.7653425420601	-401.7189323758886	4000.4610165734607	-323.8395933437882	-140.07566030460077	3988.5676600335382	-241.63673348167137	-16.544170403889265	3990.366637889745	-234.51021168436037	-2.0086383510709718	3977.6996388636726	-217.36359200800626	-12.537193077752432	4024.387392011537	-216.5928494215859
87	1.45	-83.59532889089452	3889.2670486151	-588.9411524928151	267.46207578493045	3997.2157671714267	-523.4077362350833	624.5382869549679	4148.080919181323	-523.6083279508052	690.6317886490141	4093.0168806510355	-477.83397640522617	706.5387189776741	4122.142751968457	-557.4251955654712	655.8891802674611	4193.236863304282	-531.6117175223259	-114.39484868807371	3926.0816993866947	-360.33101992130634	227.96433491353397	4011.980172584829	-353.80003623425426	570.8683678881223	4189.863808693898	-380.81581336263963	680.3084887666778	4189.208064411197	-351.73703019743886	637.9884959953015	4247.683224422868	-339.3549427207082	599.4975032435956	4230.645128416834	-408.30339639722274	-691.5048871104494	3747.787963282333	-489.6944341530584	-914.2672471236092	3549.027052783076	-418.44023593157124	-743.5657777847457	3585.9445182344875	-419.0041934842203	-582.8935214810107	3698.3145590799613	-631.8791555779126	-372.45502327991085	3579.5053017419555	-667.8896664686681	-542.3127750917051	3408.1059791864545	-535.1120164514566	-661.0665966791977	3442.9841882776514	-470.8532024227105	-670.7708832081977	3405.979703649397	-443.1155649285041	-636.4144567153558	3334.257214047341	-444.18869054795255	-640.668625732503	3888.8950571413225	-383.7308965748729	-401.93388038277675	4000.5486414002494	-323.99712281422853	-145.63337036972854	3986.5947869807883	-242.40509536398804	-16.494265449623597	3990.7084059611752	-234.85190618856348	-1.9660722543544762	3977.7418850784293	-217.45787497141836	-12.80554047519732	4023.7468343946416	-216.42175986672046
88	1.4666666666666666	-78.64916717981912	3891.959491156839	-588.8890102140933	261.17654575249884	3994.3028825906363	-523.8878641941436	624.6086181615185	4148.557738891007	-523.8007265809008	697.2265024159503	4097.080468973833	-479.8797604247461	701.3906904590765	4090.2707962012714	-550.0552349076308	655.9785524314265	4193.92948056188	-531.9516025774813	-114.39653187543564	3926.1632967260384	-360.3839246047565	227.34141317607123	4009.2284884581445	-353.90722445297433	571.0497888524758	4190.083455433948	-380.88563918455844	673.0805393083632	4183.710595695075	-349.4611938515438	637.8283654727846	4246.904413002973	-339.16492850378637	599.592878215887	4230.994530492133	-408.5478774030399	-686.9563592965363	3721.762008469071	-483.36728625836156	-914.2383779557017	3549.2216895487622	-418.47522669926786	-743.6462197990209	3586.6062186541026	-419.2573347533991	-582.8694654877149	3698.4437024914046	-631.7530454926259	-372.58034202802685	3579.524372971613	-667.9206101989843	-542.4451078561605	3408.043282091057	-535.0976865987041	-661.219471998927	3443.2313182819303	-470.98494137853123	-671.0887279734353	3406.874813651116	-443.5201221402901	-644.8774850376847	3381.249962437232	-457.1504481053624	-640.5764457130877	3888.516967313512	-383.6301893679242	-401.9227374488795	4000.379326576964	-323.9350882709932	-145.49735443390188	3986.5438977394474	-242.4036020449255	-16.121205450123256	3991.853921381605	-235.55422328169294	2.7444688989085817	3982.244120662553	-219.46654914260756	-12.634698302289129	3997.275511922698	-212.0566717815276
89	1.4833333333333334	-78.57246531946105	3892.1423106817742	-588.9522499975591	267.3620507012254	3997.4136402594913	-523.3811607069232	624.356959511971	4148.036171543783	-523.5580423967733	690.2513771931917	4092.660572422218	-477.8062253211828	699.5843606283942	4117.618032474288	-555.1125217989622	655.7302747713234	4193.193595001073	-531.6380506423282	-114.39285346344715	3926.1179770502345	-360.3229184598816	227.43895811239145	4009.306300847113	-353.93978903283886	571.0728395595828	4190.114056045288	-380.9264326612759	673.0168091016321	4184.4390593016515	-349.7291582446405	637.9686234994665	4247.324757944883	-339.3022366300931	599.7238530774645	4231.009520498164	-408.4339559274219	-681.9518522299526	3723.0334009856647	-483.2535115141127	-914.246465539302	3548.975970125156	-418.3881785215657	-743.5815085847545	3586.341062512606	-419.1743465103442	-585.0183830316802	3715.2672256099513	-639.8873323741687	-372.61540464242967	3579.401990889821	-667.7378010665299	-542.4461592538862	3408.0551727021552	-534.7606789158266	-661.2234231476928	3442.7953712194185	-470.5671711328928	-671.0262702288403	3405.7981671813113	-442.6022434672034	-645.4044608650529	3355.2883173072096	-444.1023868552103	-640.5633321368009	3888.6793867147317	-383.6801972488826	-401.88730118973194	4000.5138672946664	-324.05228457149593	-150.70569291933293	3986.072167061212	-242.69197801697828	-16.43497667422975	3991.1162774405784	-234.93450396275279	2.7019053034641884	3981.718391878454	-219.04131428340645	-12.71366469948239	4024.337393510539	-216.58887539411174
